<svg width="316" height="187" viewBox="0 0 316 187" fill="none" xmlns="http://www.w3.org/2000/svg">
<rect width="316" height="187" fill="#222229"/>
<mask id="mask0_19_2" style="mask-type:luminance" maskUnits="userSpaceOnUse" x="93" y="79" width="129" height="29">
<path d="M222 79H93V108H222V79Z" fill="white"/>
</mask>
<g mask="url(#mask0_19_2)">
<path d="M216.407 83.4035C205.719 77.9 195.104 88.6335 200.537 99.4563C202.291 102.946 205.854 105.102 209.719 105.102H219.133C220.716 105.102 222 103.838 222 102.237V92.7042C222 88.7901 219.851 85.1792 216.405 83.4055L216.407 83.4035ZM213.706 98.3623C212.798 98.9747 211.706 99.3314 210.534 99.3314C207.367 99.3314 204.8 96.7313 204.8 93.5247C204.8 90.3181 207.367 87.7179 210.534 87.7179C213.7 87.7179 216.268 90.3181 216.268 93.5247C216.268 94.7118 215.915 95.8157 215.311 96.7372L217.107 100.182L213.706 98.3623Z" fill="#BBBBBB"/>
<path d="M170.443 84.8187V102.237C170.443 103.84 169.163 105.14 167.578 105.14C165.993 105.14 164.713 103.84 164.713 102.237V84.8187C164.713 83.2154 165.971 81.9153 167.556 81.9153C168.347 81.9153 169.073 82.2403 169.592 82.7655C170.11 83.2907 170.441 84.016 170.441 84.8187H170.443Z" fill="#BBBBBB"/>
<path d="M161.745 93.5268V102.235C161.745 103.838 160.491 105.138 158.907 105.138C157.745 105.138 156.733 104.437 156.283 103.432C156.121 103.067 156.017 102.663 156.017 102.237V93.5288C156.017 90.3222 153.455 87.722 150.289 87.722C147.122 87.722 144.56 90.3222 144.56 93.5288V102.237C144.56 102.663 144.49 103.069 144.327 103.432C143.877 104.439 142.869 105.138 141.707 105.138C140.124 105.138 138.832 103.838 138.832 102.235V93.5268C138.832 87.1136 143.958 81.9153 150.289 81.9153C156.62 81.9153 161.745 87.1136 161.745 93.5268Z" fill="#BBBBBB"/>
<path d="M196.116 93.5268V102.235C196.116 103.838 194.875 105.138 193.292 105.138C192.13 105.138 191.11 104.437 190.66 103.432C190.497 103.067 190.388 102.663 190.388 102.237V93.5288C190.388 90.3222 187.826 87.722 184.66 87.722C181.493 87.722 178.931 90.3222 178.931 93.5288V102.237C178.931 102.663 178.877 103.069 178.712 103.432C178.262 104.439 177.246 105.138 176.084 105.138C174.501 105.138 173.201 103.838 173.201 102.235V93.5268C173.201 87.1136 178.327 81.9153 184.658 81.9153C190.989 81.9153 196.114 87.1136 196.114 93.5268H196.116Z" fill="#BBBBBB"/>
<path d="M132.841 92.4387C132.47 91.7927 131.777 91.3547 130.986 91.3547C130.195 91.3547 129.503 91.7828 129.131 92.4268H127.381C126.831 84.9058 120.641 79 113.087 79C105.533 79 99.3447 84.9058 98.7948 92.4268H97.0119C96.6401 91.7828 95.9453 91.3448 95.1508 91.3448C94.3562 91.3448 93.6615 91.7867 93.2896 92.4368C93.1057 92.7558 93.002 93.1304 93.002 93.5268C93.002 93.9231 93.1057 94.2957 93.2896 94.6168C93.6615 95.2668 94.3562 95.685 95.1508 95.685C95.9453 95.685 96.642 95.2212 97.0119 94.5771H98.7948C99.3447 102.096 105.533 108.004 113.087 108.004C120.641 108.004 126.831 102.098 127.379 94.5771H129.117C129.487 95.2212 130.186 95.6968 130.984 95.6968C131.783 95.6968 132.481 95.2648 132.851 94.6088C133.031 94.2917 133.133 93.9271 133.133 93.5347C133.133 93.1423 133.025 92.7638 132.839 92.4407L132.841 92.4387ZM117.332 101.448C116.545 102.926 115.005 103.904 113.23 103.904C111.455 103.904 109.915 102.938 109.128 101.46C108.909 101.05 109.206 100.59 109.666 100.59H116.796C117.256 100.59 117.551 101.036 117.334 101.448H117.332ZM124.616 93.6576C124.616 96.0615 122.69 98.0116 120.316 98.0116H106.002C103.629 98.0116 101.703 96.0615 101.703 93.6576V93.5565C101.703 91.1525 103.629 89.2024 106.002 89.2024H120.316C122.69 89.2024 124.616 91.1525 124.616 93.5565V93.6576Z" fill="#BBBBBB"/>
<path d="M108.763 96.43C110.347 96.43 111.631 95.1301 111.631 93.5267C111.631 91.9232 110.347 90.6233 108.763 90.6233C107.18 90.6233 105.896 91.9232 105.896 93.5267C105.896 95.1301 107.18 96.43 108.763 96.43Z" fill="#BBBBBB"/>
<path d="M117.404 96.43C118.988 96.43 120.271 95.1301 120.271 93.5267C120.271 91.9232 118.988 90.6233 117.404 90.6233C115.821 90.6233 114.537 91.9232 114.537 93.5267C114.537 95.1301 115.821 96.43 117.404 96.43Z" fill="#BBBBBB"/>
</g>
</svg>
