<svg width="187" height="187" viewBox="0 0 187 187" fill="none" xmlns="http://www.w3.org/2000/svg">
<path d="M173.709 89.2107C172.209 86.6048 169.414 84.838 166.225 84.838C163.036 84.838 160.241 86.5649 158.741 89.1627H151.683C149.465 58.8237 124.495 35 94.0216 35C63.5489 35 38.5862 58.8237 36.3678 89.1627H29.1759C27.6759 86.5649 24.8734 84.798 21.6682 84.798C18.463 84.798 15.6605 86.5806 14.1605 89.2031C13.4184 90.4899 13 92.001 13 93.6C13 95.1987 13.4184 96.7017 14.1605 97.997C15.6605 100.619 18.463 102.306 21.6682 102.306C24.8734 102.306 27.6838 100.435 29.1759 97.8369H36.3678C38.5862 128.168 63.5489 152 94.0216 152C124.495 152 149.465 128.176 151.675 97.8369H158.686C160.178 100.435 162.996 102.354 166.217 102.354C169.438 102.354 172.256 100.611 173.749 97.9648C174.475 96.6856 174.885 95.2148 174.885 93.6319C174.885 92.049 174.451 90.5222 173.701 89.2188L173.709 89.2107ZM111.145 125.554C107.971 131.518 101.758 135.459 94.5981 135.459C87.4374 135.459 81.2248 131.566 78.0509 125.602C77.1666 123.947 78.3667 122.092 80.2219 122.092H108.982C110.837 122.092 112.029 123.891 111.153 125.554H111.145ZM140.528 94.1277C140.528 103.825 132.76 111.691 123.184 111.691H65.4432C55.8675 111.691 48.0991 103.825 48.0991 94.1277V93.7199C48.0991 84.0223 55.8675 76.1557 65.4432 76.1557H123.184C132.76 76.1557 140.528 84.0223 140.528 93.7199V94.1277Z" fill="#AF0C37"/>
<path d="M76.5809 105.311C82.9686 105.311 88.1466 100.068 88.1466 93.5996C88.1466 87.1312 82.9686 81.8875 76.5809 81.8875C70.1936 81.8875 65.0156 87.1312 65.0156 93.5996C65.0156 100.068 70.1936 105.311 76.5809 105.311Z" fill="#AF0C37"/>
<path d="M111.437 105.311C117.824 105.311 123.002 100.068 123.002 93.5996C123.002 87.1312 117.824 81.8875 111.437 81.8875C105.049 81.8875 99.8712 87.1312 99.8712 93.5996C99.8712 100.068 105.049 105.311 111.437 105.311Z" fill="#AF0C37"/>
</svg>
