<svg width="129" height="29" viewBox="0 0 129 29" fill="none" xmlns="http://www.w3.org/2000/svg">
<mask id="mask0_19_75" style="mask-type:luminance" maskUnits="userSpaceOnUse" x="0" y="0" width="129" height="29">
<path d="M129 0H0V29H129V0Z" fill="white"/>
</mask>
<g mask="url(#mask0_19_75)">
<path d="M123.407 4.40351C112.719 -1.10001 102.104 9.63353 107.537 20.4563C109.291 23.9462 112.854 26.1025 116.719 26.1025H126.133C127.716 26.1025 129 24.8381 129 23.2368V13.7042C129 9.7901 126.851 6.17922 123.405 4.40549L123.407 4.40351ZM120.706 19.3623C119.798 19.9747 118.706 20.3314 117.534 20.3314C114.367 20.3314 111.8 17.7313 111.8 14.5247C111.8 11.3181 114.367 8.71793 117.534 8.71793C120.7 8.71793 123.268 11.3181 123.268 14.5247C123.268 15.7118 122.915 16.8157 122.311 17.7372L124.107 21.1816L120.706 19.3623Z" fill="#AF0C37"/>
<path d="M77.4431 5.81865V23.2369C77.4431 24.8402 76.1632 26.1403 74.578 26.1403C72.9928 26.1403 71.7129 24.8402 71.7129 23.2369V5.81865C71.7129 4.21536 72.9713 2.91528 74.5565 2.91528C75.3471 2.91528 76.0732 3.2403 76.5918 3.76548C77.1104 4.29067 77.4411 5.01601 77.4411 5.81865H77.4431Z" fill="#AF0C37"/>
<path d="M68.745 14.5268V23.2349C68.745 24.8382 67.4906 26.1383 65.9073 26.1383C64.7448 26.1383 63.733 25.4367 63.2829 24.4319C63.1205 24.0673 63.0168 23.663 63.0168 23.2369V14.5288C63.0168 11.3222 60.455 8.72202 57.2885 8.72202C54.122 8.72202 51.5603 11.3222 51.5603 14.5288V23.2369C51.5603 23.663 51.4898 24.0692 51.3274 24.4319C50.8773 25.4387 49.8694 26.1383 48.7069 26.1383C47.1237 26.1383 45.832 24.8382 45.832 23.2349V14.5268C45.832 8.1136 50.9575 2.91528 57.2885 2.91528C63.6195 2.91528 68.745 8.1136 68.745 14.5268Z" fill="#AF0C37"/>
<path d="M103.116 14.5268V23.2349C103.116 24.8382 101.875 26.1383 100.292 26.1383C99.1296 26.1383 98.11 25.4367 97.6599 24.4319C97.4975 24.0673 97.3879 23.663 97.3879 23.2369V14.5288C97.3879 11.3222 94.8261 8.72202 91.6596 8.72202C88.4931 8.72202 85.9314 11.3222 85.9314 14.5288V23.2369C85.9314 23.663 85.8766 24.0692 85.7122 24.4319C85.2621 25.4387 84.2464 26.1383 83.0839 26.1383C81.5006 26.1383 80.2012 24.8382 80.2012 23.2349V14.5268C80.2012 8.1136 85.3267 2.91528 91.6577 2.91528C97.9887 2.91528 103.114 8.1136 103.114 14.5268H103.116Z" fill="#AF0C37"/>
<path d="M39.8413 13.4387C39.4695 12.7927 38.7767 12.3547 37.9861 12.3547C37.1954 12.3547 36.5026 12.7828 36.1308 13.4268H34.3812C33.8313 5.90583 27.6412 0 20.087 0C12.5329 0 6.34471 5.90583 5.79478 13.4268H4.01192C3.64008 12.7828 2.94534 12.3448 2.15078 12.3448C1.35622 12.3448 0.661474 12.7867 0.289637 13.4368C0.105676 13.7558 0.00195312 14.1304 0.00195312 14.5268C0.00195312 14.9231 0.105676 15.2957 0.289637 15.6168C0.661474 16.2668 1.35622 16.685 2.15078 16.685C2.94534 16.685 3.64204 16.2212 4.01192 15.5771H5.79478C6.34471 23.0961 12.5329 29.004 20.087 29.004C27.6412 29.004 33.8313 23.0981 34.3792 15.5771H36.1171C36.487 16.2212 37.1856 16.6968 37.9841 16.6968C38.7826 16.6968 39.4812 16.2648 39.8511 15.6088C40.0312 15.2917 40.1329 14.9271 40.1329 14.5347C40.1329 14.1423 40.0253 13.7638 39.8394 13.4407L39.8413 13.4387ZM24.3318 22.4481C23.5451 23.9265 22.0049 24.9036 20.2299 24.9036C18.4548 24.9036 16.9147 23.9384 16.1279 22.46C15.9087 22.0497 16.2062 21.59 16.6661 21.59H23.7956C24.2555 21.59 24.551 22.0359 24.3338 22.4481H24.3318ZM31.6159 14.6576C31.6159 17.0615 29.6902 19.0116 27.3163 19.0116H13.0025C10.6287 19.0116 8.70294 17.0615 8.70294 14.6576V14.5565C8.70294 12.1525 10.6287 10.2024 13.0025 10.2024H27.3163C29.6902 10.2024 31.6159 12.1525 31.6159 14.5565V14.6576Z" fill="#AF0C37"/>
<path d="M15.7635 17.43C17.347 17.43 18.6306 16.1301 18.6306 14.5267C18.6306 12.9232 17.347 11.6233 15.7635 11.6233C14.1801 11.6233 12.8965 12.9232 12.8965 14.5267C12.8965 16.1301 14.1801 17.43 15.7635 17.43Z" fill="#AF0C37"/>
<path d="M24.4042 17.43C25.9876 17.43 27.2712 16.1301 27.2712 14.5267C27.2712 12.9232 25.9876 11.6233 24.4042 11.6233C22.8207 11.6233 21.5371 12.9232 21.5371 14.5267C21.5371 16.1301 22.8207 17.43 24.4042 17.43Z" fill="#AF0C37"/>
</g>
</svg>
